<svg width="67" height="33" viewBox="0 0 67 33" fill="none" xmlns="http://www.w3.org/2000/svg">
<path d="M19.66 23.78C20.18 25.41 19.87 27.26 18.68 28.67C16.84 30.85 13.57 31.13 11.38 29.29C9.18999 27.46 8.90999 24.2 10.75 22.02C12.59 19.84 15.86 19.56 18.05 21.4" stroke="#868686" stroke-width="2" stroke-linecap="round" stroke-linejoin="round"/>
<path d="M14.72 26.47C15.3441 26.47 15.85 25.9686 15.85 25.35C15.85 24.7314 15.3441 24.23 14.72 24.23C14.0959 24.23 13.59 24.7314 13.59 25.35C13.59 25.9686 14.0959 26.47 14.72 26.47Z" fill="#868686" stroke="#868686" stroke-width="2" stroke-linecap="round" stroke-linejoin="round"/>
<path d="M53.1 23.78C53.62 25.41 53.31 27.26 52.12 28.67C50.28 30.85 47.01 31.13 44.82 29.29C42.63 27.46 42.35 24.2 44.19 22.02C46.03 19.84 49.3 19.56 51.49 21.4" stroke="#868686" stroke-width="2" stroke-linecap="round" stroke-linejoin="round"/>
<path d="M48.16 26.47C48.7841 26.47 49.29 25.9686 49.29 25.35C49.29 24.7314 48.7841 24.23 48.16 24.23C47.5359 24.23 47.03 24.7314 47.03 25.35C47.03 25.9686 47.5359 26.47 48.16 26.47Z" fill="#868686" stroke="#868686" stroke-width="2" stroke-linecap="round" stroke-linejoin="round"/>
<path d="M54.57 25.39H62.17C63.59 25.39 64.75 24.24 64.75 22.81V22.67C64.75 22.46 64.73 22.26 64.68 22.06L63.12 15.63C63 15.13 62.73 14.67 62.34 14.32L61.54 13.61C61.17 13.28 60.71 13.06 60.22 12.98L47.59 11.01C47.22 10.95 46.86 10.81 46.55 10.6L36.72 3.98001C36.29 3.69001 35.79 3.54001 35.28 3.54001H19.7C18.91 3.54001 18.17 3.90001 17.68 4.51001L13.36 9.95001C12.87 10.56 12.13 10.92 11.34 10.92H5.57001C4.28001 10.92 3.18001 11.88 3.02001 13.16L1.82001 22.42C1.62001 23.96 2.82001 25.33 4.37001 25.33H8.53001" stroke="#868686" stroke-width="2" stroke-linecap="round" stroke-linejoin="round"/>
<path d="M21.04 25.39H26" stroke="#868686" stroke-width="2" stroke-linecap="round" stroke-linejoin="round"/>
<path d="M38.02 25.39H42.98" stroke="#868686" stroke-width="2" stroke-linecap="round" stroke-linejoin="round"/>
<path d="M29.65 25.39H31.48" stroke="#868686" stroke-width="2" stroke-linecap="round" stroke-linejoin="round"/>
<path d="M27.56 19.38H31.1" stroke="#868686" stroke-width="2" stroke-linecap="round" stroke-linejoin="round"/>
<path d="M17.84 13.29L20.86 8.17001C20.92 8.06001 21.04 7.99001 21.16 7.99001H35.35C35.44 7.99001 35.52 8.02001 35.59 8.09001L40.9 13.21C41.14 13.44 40.99 13.86 40.66 13.86H18.14C17.86 13.86 17.69 13.54 17.84 13.29Z" stroke="#868686" stroke-width="2.18" stroke-linecap="round" stroke-linejoin="round"/>
<path d="M27.56 13.87V8" stroke="#868686" stroke-width="2.18" stroke-linecap="round" stroke-linejoin="round"/>
<path d="M6.85999 15.78H3.14999C2.2829 15.78 1.57999 16.4829 1.57999 17.35V19.82C1.57999 20.6871 2.2829 21.39 3.14999 21.39H6.85999C7.72707 21.39 8.42999 20.6871 8.42999 19.82V17.35C8.42999 16.4829 7.72707 15.78 6.85999 15.78Z" fill="#868686"/>
<path d="M63.17 20.5H59.47C58.6 20.5 57.9 19.97 57.9 19.32V16.95C57.9 16.3 58.6 15.77 59.47 15.77H63.17C63.69 16.95 64.22 18.13 64.74 19.31C64.74 19.96 64.04 20.49 63.17 20.49V20.5Z" fill="#868686"/>
</svg>
