<svg width="51" height="34" viewBox="0 0 51 34" fill="none" xmlns="http://www.w3.org/2000/svg">
<path d="M37.4767 1H32.3867L40.8767 23.45" stroke="#868686" stroke-width="2" stroke-linecap="round" stroke-linejoin="round"/>
<path d="M17.7474 21.3602C18.6074 23.9602 18.0974 26.9202 16.1374 29.1602C13.0874 32.6402 7.67739 33.0802 4.04739 30.1502C0.427394 27.2302 -0.0326061 22.0302 3.01739 18.5502C6.06739 15.0702 11.4774 14.6302 15.1074 17.5602C15.3774 17.7802 15.6374 18.0202 15.8774 18.2602" stroke="#868686" stroke-width="2" stroke-linecap="round" stroke-linejoin="round"/>
<path d="M49.0472 21.3599C49.9072 23.9599 49.3972 26.9199 47.4372 29.1599C44.3872 32.6399 38.9772 33.0799 35.3472 30.1499C31.7272 27.2199 31.2572 22.0199 34.3072 18.5399C37.3572 15.0599 42.7672 14.6199 46.3972 17.5499C46.6672 17.7699 46.9272 18.0099 47.1672 18.2499" stroke="#868686" stroke-width="2" stroke-linecap="round" stroke-linejoin="round"/>
<path d="M13.3467 3.72021H20.8867" stroke="#868686" stroke-width="2" stroke-linecap="round" stroke-linejoin="round"/>
<path d="M24.0471 8.97021H19.4071L9.57715 23.4502H20.8871" stroke="#868686" stroke-width="2" stroke-linecap="round" stroke-linejoin="round"/>
<path d="M28.4869 8.97021H27.2969" stroke="#868686" stroke-width="2" stroke-linecap="round" stroke-linejoin="round"/>
<path d="M17.1172 3.72021L25.9672 23.4502L35.3972 8.97021" stroke="#868686" stroke-width="2" stroke-linecap="round" stroke-linejoin="round"/>
<path d="M9.57711 26.2902C10.9799 26.2902 12.1171 25.2022 12.1171 23.8602C12.1171 22.5181 10.9799 21.4302 9.57711 21.4302C8.17431 21.4302 7.03711 22.5181 7.03711 23.8602C7.03711 25.2022 8.17431 26.2902 9.57711 26.2902Z" fill="#868686"/>
<path d="M40.8769 26.2902C42.2797 26.2902 43.4169 25.2022 43.4169 23.8602C43.4169 22.5181 42.2797 21.4302 40.8769 21.4302C39.4741 21.4302 38.3369 22.5181 38.3369 23.8602C38.3369 25.2022 39.4741 26.2902 40.8769 26.2902Z" fill="#868686"/>
</svg>
