<svg width="68" height="34" viewBox="0 0 68 34" fill="none" xmlns="http://www.w3.org/2000/svg">
<path d="M20.48 24.16C21 25.79 20.69 27.64 19.5 29.05C17.66 31.23 14.39 31.51 12.2 29.67C10.01 27.84 9.73 24.58 11.57 22.4C13.41 20.22 16.68 19.94 18.87 21.78" stroke="#868686" stroke-width="2" stroke-linecap="round" stroke-linejoin="round"/>
<path d="M15.54 26.84C16.1641 26.84 16.67 26.3386 16.67 25.72C16.67 25.1014 16.1641 24.6 15.54 24.6C14.9159 24.6 14.41 25.1014 14.41 25.72C14.41 26.3386 14.9159 26.84 15.54 26.84Z" stroke="#868686" stroke-width="2" stroke-linecap="round" stroke-linejoin="round"/>
<path d="M60.03 24.16C60.55 25.79 60.24 27.64 59.05 29.05C57.21 31.23 53.94 31.51 51.75 29.67C49.56 27.84 49.28 24.58 51.12 22.4C52.96 20.22 56.23 19.94 58.42 21.78" stroke="#868686" stroke-width="2" stroke-linecap="round" stroke-linejoin="round"/>
<path d="M55.09 26.84C55.7141 26.84 56.22 26.3386 56.22 25.72C56.22 25.1014 55.7141 24.6 55.09 24.6C54.4659 24.6 53.96 25.1014 53.96 25.72C53.96 26.3386 54.4659 26.84 55.09 26.84Z" stroke="#868686" stroke-width="2" stroke-linecap="round" stroke-linejoin="round"/>
<path d="M10.43 25.5H4.57999C3.73999 25.5 3.04999 24.82 3.04999 23.97V14.12C3.04999 13.28 3.72999 12.59 4.57999 12.59H25.16C25.86 12.59 26.47 12.12 26.64 11.44L28.14 5.57999C28.31 4.89999 28.92 4.42999 29.62 4.42999H41.52C41.91 4.42999 42.28 4.57999 42.57 4.84999L49.7 11.56C49.95 11.79 50.27 11.94 50.61 11.97L57.3 12.59C57.36 12.59 57.42 12.6 57.48 12.62L63.88 13.99C64.59 14.14 65.09 14.76 65.09 15.49V23.08C65.09 23.92 64.41 24.61 63.56 24.61H59.74" stroke="#868686" stroke-width="2" stroke-linecap="round" stroke-linejoin="round"/>
<path d="M21.65 25.5H27" stroke="#868686" stroke-width="2" stroke-linecap="round" stroke-linejoin="round"/>
<path d="M30.57 25.5H49.39" stroke="#868686" stroke-width="2" stroke-linecap="round" stroke-linejoin="round"/>
<path d="M29.35 16.23H50.39" stroke="#868686" stroke-width="2" stroke-linecap="round" stroke-linejoin="round"/>
<path d="M29.74 12.27L31.57 7.75H41.09L46 12.27H29.74Z" stroke="#868686" stroke-width="2" stroke-linecap="round" stroke-linejoin="round"/>
<path d="M3.04999 14.96H5.95999L7.16999 18.92H3.04999" fill="#868686"/>
<path d="M3.04999 14.96H5.95999L7.16999 18.92H3.04999" stroke="#868686" stroke-width="2" stroke-linecap="round" stroke-linejoin="round"/>
<path d="M65.09 15.48H60.87L59.57 18.52H65.09" fill="#868686"/>
<path d="M65.09 15.48H60.87L59.57 18.52H65.09" stroke="#868686" stroke-width="2" stroke-linecap="round" stroke-linejoin="round"/>
<path d="M25.16 12.59V25.1" stroke="#868686" stroke-width="2" stroke-linecap="round" stroke-linejoin="round"/>
<path d="M3.42999 21.92H9.42999" stroke="#868686" stroke-width="2" stroke-linecap="round" stroke-linejoin="round"/>
<path d="M25.16 21.92H48.57" stroke="#868686" stroke-width="2" stroke-linecap="round" stroke-linejoin="round"/>
</svg>
