<svg width="53" height="33" viewBox="0 0 53 33" fill="none" xmlns="http://www.w3.org/2000/svg">
<path d="M15.317 29.1097C13.407 31.0797 10.557 31.9997 7.65699 31.2997C3.15699 30.2097 0.256986 25.6197 1.16699 21.0497C2.08699 16.4797 6.46699 13.6597 10.967 14.7497C15.467 15.8397 18.367 20.4297 17.457 24.9997C17.387 25.3497 17.297 25.6797 17.187 26.0097" stroke="#868686" stroke-width="2" stroke-linecap="round" stroke-linejoin="round"/>
<path d="M48.8375 29.1097C46.9275 31.0797 44.0775 31.9997 41.1775 31.2997C36.6775 30.2097 33.7775 25.6197 34.6875 21.0497C35.6075 16.4797 39.9875 13.6597 44.4875 14.7497C48.9875 15.8397 51.8875 20.4297 50.9775 24.9997C50.9075 25.3497 50.8175 25.6797 50.7075 26.0097" stroke="#868686" stroke-width="2" stroke-linecap="round" stroke-linejoin="round"/>
<path d="M9.31734 25.4498C10.7201 25.4498 11.8573 24.3619 11.8573 23.0198C11.8573 21.6778 10.7201 20.5898 9.31734 20.5898C7.91454 20.5898 6.77734 21.6778 6.77734 23.0198C6.77734 24.3619 7.91454 25.4498 9.31734 25.4498Z" fill="#868686" stroke="#868686" stroke-width="2" stroke-miterlimit="0"/>
<path d="M42.8369 25.4498C44.2397 25.4498 45.3769 24.3619 45.3769 23.0198C45.3769 21.6778 44.2397 20.5898 42.8369 20.5898C41.4341 20.5898 40.2969 21.6778 40.2969 23.0198C40.2969 24.3619 41.4341 25.4498 42.8369 25.4498Z" fill="#868686" stroke="#868686" stroke-width="2" stroke-miterlimit="0"/>
<path d="M26.9373 22.2899C28.5665 22.2899 29.8873 21.0228 29.8873 19.4599C29.8873 17.8969 28.5665 16.6299 26.9373 16.6299C25.3081 16.6299 23.9873 17.8969 23.9873 19.4599C23.9873 21.0228 25.3081 22.2899 26.9373 22.2899Z" fill="#868686"/>
<path d="M29.9873 1H34.5573L42.8373 23.3" stroke="#868686" stroke-width="2" stroke-linecap="round" stroke-linejoin="round"/>
<path d="M10.7471 23.6996L29.2471 22.6096L37.2271 12.1496H25.2771V9.14955L29.2471 6.53955H34.9871H36.4171" stroke="#868686" stroke-width="1.91" stroke-linecap="round" stroke-linejoin="round"/>
<path d="M20.8574 9.53955H22.6174" stroke="#868686" stroke-width="2" stroke-linecap="round" stroke-linejoin="round"/>
<path d="M14.6872 7.80967L7.51719 4.90967L3.11719 6.35967L5.28719 8.47967L8.47719 8.72967L19.6872 17.8297V21.9997" stroke="#868686" stroke-width="1.87" stroke-linecap="round" stroke-linejoin="round"/>
<path d="M25.3071 12.1499L24.2671 17.9099L20.0771 18.2799" stroke="#868686" stroke-width="1.88" stroke-linecap="round" stroke-linejoin="round"/>
<path d="M17.0771 8.75977L17.8271 8.97977" stroke="#868686" stroke-width="2" stroke-linecap="round" stroke-linejoin="round"/>
</svg>
