<svg width="51" height="34" viewBox="0 0 51 34" fill="none" xmlns="http://www.w3.org/2000/svg">
<path d="M16.313 25.2971C16.833 26.9671 16.523 28.8771 15.333 30.3171C13.493 32.5571 10.223 32.8371 8.03298 30.9571C5.84298 29.0771 5.56298 25.7271 7.40298 23.4971C9.24298 21.2671 12.513 20.9771 14.703 22.8571" stroke="#868686" stroke-width="2" stroke-linecap="round" stroke-linejoin="round"/>
<path d="M46.0835 25.2971C46.6035 26.9671 46.2935 28.8771 45.1035 30.3171C43.2635 32.5571 39.9935 32.8371 37.8035 30.9571C35.6135 29.0771 35.3335 25.7271 37.1735 23.4971C39.0135 21.2671 42.2835 20.9771 44.4735 22.8571" stroke="#868686" stroke-width="2" stroke-linecap="round" stroke-linejoin="round"/>
<path d="M6.19316 26.6271H2.49316V25.8271" stroke="#868686" stroke-width="2" stroke-linecap="round" stroke-linejoin="round"/>
<path d="M21.2827 26.627H16.5527" stroke="#868686" stroke-width="2" stroke-linecap="round" stroke-linejoin="round"/>
<path d="M35.9629 26.627H26.2129" stroke="#868686" stroke-width="2" stroke-linecap="round" stroke-linejoin="round"/>
<path d="M2.49298 25.8268C1.55298 22.7668 0.552979 18.0468 1.21298 12.4068C1.46298 10.2568 1.90298 8.34683 2.41298 6.71683C2.56298 6.21683 3.55298 4.27683 5.11298 2.89683C6.60298 1.57683 7.84298 1.53683 17.113 1.04683C21.343 0.826827 25.583 1.44683 29.813 1.56683C29.963 1.56683 30.433 1.57683 30.933 1.83683C31.273 2.01683 31.573 2.27683 31.803 2.59683L37.873 11.1168C38.193 11.5668 38.653 11.8968 39.173 12.0468L47.683 14.5968C48.733 14.9068 49.453 15.8968 49.453 17.0168V24.0968C49.453 25.4868 48.353 26.6168 46.993 26.6168H46.323" stroke="#868686" stroke-width="2" stroke-linecap="round" stroke-linejoin="round"/>
<path d="M8.43336 13.3172H7.34336C6.70336 13.3172 6.19336 12.7672 6.19336 12.0872V6.38723C6.19336 5.70723 6.71336 5.15723 7.34336 5.15723H15.6234C16.2634 5.15723 16.7734 5.70723 16.7734 6.38723V12.0872C16.7734 12.7672 16.2534 13.3172 15.6234 13.3172H11.6134" stroke="#868686" stroke-width="2" stroke-linecap="round" stroke-linejoin="round"/>
<path d="M25.5836 13.317H32.5836C33.5836 13.317 34.2236 12.227 33.7536 11.327L30.9136 5.86697C30.6836 5.42697 30.2336 5.14697 29.7436 5.14697H20.7136C19.9836 5.14697 19.3936 5.75697 19.3936 6.49697V11.957C19.3936 12.707 19.9836 13.307 20.7136 13.307H21.9336" stroke="#868686" stroke-width="2" stroke-linecap="round" stroke-linejoin="round"/>
<path d="M1.77301 20.9771H3.23301C3.56438 20.9771 3.83301 20.7084 3.83301 20.3771L3.83301 18.9171C3.83301 18.5857 3.56438 18.3171 3.23301 18.3171H1.77301C1.44164 18.3171 1.17301 18.5857 1.17301 18.9171L1.17301 20.3771C1.17301 20.7084 1.44164 20.9771 1.77301 20.9771Z" fill="#868686" stroke="#868686" stroke-width="2" stroke-linecap="round" stroke-linejoin="round"/>
<path d="M46.3231 20.5269H48.8531C49.1845 20.5269 49.4531 20.2582 49.4531 19.9269V18.3969C49.4531 18.0655 49.1845 17.7969 48.8531 17.7969H46.3231C45.9918 17.7969 45.7231 18.0655 45.7231 18.3969V19.9269C45.7231 20.2582 45.9918 20.5269 46.3231 20.5269Z" fill="#868686" stroke="#868686" stroke-width="2" stroke-linecap="round" stroke-linejoin="round"/>
<path d="M11.4835 28.0271C12.1076 28.0271 12.6135 27.5257 12.6135 26.9071C12.6135 26.2886 12.1076 25.7871 11.4835 25.7871C10.8594 25.7871 10.3535 26.2886 10.3535 26.9071C10.3535 27.5257 10.8594 28.0271 11.4835 28.0271Z" fill="#868686" stroke="#868686" stroke-width="2" stroke-linecap="round" stroke-linejoin="round"/>
<path d="M41.1427 28.0271C41.7668 28.0271 42.2727 27.5257 42.2727 26.9071C42.2727 26.2886 41.7668 25.7871 41.1427 25.7871C40.5186 25.7871 40.0127 26.2886 40.0127 26.9071C40.0127 27.5257 40.5186 28.0271 41.1427 28.0271Z" fill="#868686" stroke="#868686" stroke-width="2" stroke-linecap="round" stroke-linejoin="round"/>
<path d="M20.2334 17.4473H22.3234" stroke="#868686" stroke-width="2" stroke-linecap="round" stroke-linejoin="round"/>
</svg>
